<svg width="13" height="10" viewBox="0 0 13 10" fill="none" xmlns="http://www.w3.org/2000/svg">
<path d="M2.95455 9.95074V4.82587L1.39684 3.37183L0 2.56494V9.04634C0 9.54676 0.397363 9.95074 0.886387 9.95074H2.95455Z" fill="#4285F4"/>
<path d="M10.0454 9.95069H12.1136C12.6041 9.95069 13 9.5452 13 9.04629V2.56494L11.4178 3.48914L10.0454 4.82582V9.95069Z" fill="#34A853"/>
<path d="M2.95464 4.82595L2.74268 2.82351L2.95464 0.906982L6.50008 3.62014L10.0455 0.906982L10.2826 2.72004L10.0455 4.82595L6.50008 7.53911L2.95464 4.82595Z" fill="#EA4335"/>
<path d="M10.0454 0.906927V4.82589L13 2.56496V1.3591C13 0.240709 11.7487 -0.396855 10.8727 0.27387L10.0454 0.906927Z" fill="#FBBC04"/>
<path d="M0 2.56498L1.35886 3.60488L2.95455 4.82591V0.906951L2.12723 0.273894C1.24973 -0.396883 0 0.240733 0 1.35907V2.56498Z" fill="#C5221F"/>
</svg>
