<svg width="14" height="13" viewBox="0 0 14 13" fill="none" xmlns="http://www.w3.org/2000/svg">
<g clip-path="url(#clip0_53_64)">
<path d="M13.9246 2.96188V10.4959C13.9246 10.9856 13.5281 11.3821 13.0384 11.3821H10.9698V6.35976L7.42456 9.01934L3.87935 6.35976V11.3826H1.81073C1.69431 11.3826 1.57903 11.3597 1.47148 11.3151C1.36393 11.2706 1.26622 11.2052 1.18392 11.1229C1.10163 11.0405 1.03636 10.9428 0.991861 10.8352C0.947358 10.7276 0.92449 10.6123 0.924561 10.4959V2.96188C0.924561 1.86609 2.17527 1.24047 3.05169 1.89805L3.87935 2.51934L7.42456 5.17784L10.9698 2.51826L11.7974 1.89805C12.6733 1.24101 13.9246 1.86609 13.9246 2.96188Z" fill="black"/>
</g>
<defs>
<clipPath id="clip0_53_64">
<rect width="13" height="13" fill="white" transform="translate(0.924561 0.00610352)"/>
</clipPath>
</defs>
</svg>
