<svg width="16" height="15" viewBox="0 0 16 15" fill="none" xmlns="http://www.w3.org/2000/svg">
<path d="M7.93342 10.4752C8.72086 10.4752 9.47606 10.1624 10.0329 9.60562C10.5897 9.04881 10.9025 8.29362 10.9025 7.50617C10.9025 6.71873 10.5897 5.96354 10.0329 5.40673C9.47606 4.84992 8.72086 4.53711 7.93342 4.53711C7.14597 4.53711 6.39078 4.84992 5.83397 5.40673C5.27717 5.96354 4.96436 6.71873 4.96436 7.50617C4.96436 8.29362 5.27717 9.04881 5.83397 9.60562C6.39078 10.1624 7.14597 10.4752 7.93342 10.4752Z" stroke="black" stroke-width="1.1134" stroke-linecap="round" stroke-linejoin="round"/>
<path d="M1.25293 10.4751V4.53701C1.25293 3.55271 1.64394 2.60872 2.33995 1.91271C3.03596 1.2167 3.97995 0.825684 4.96426 0.825684H10.9024C11.8867 0.825684 12.8307 1.2167 13.5267 1.91271C14.2227 2.60872 14.6137 3.55271 14.6137 4.53701V10.4751C14.6137 11.4594 14.2227 12.4034 13.5267 13.0994C12.8307 13.7955 11.8867 14.1865 10.9024 14.1865H4.96426C3.97995 14.1865 3.03596 13.7955 2.33995 13.0994C1.64394 12.4034 1.25293 11.4594 1.25293 10.4751Z" stroke="black" stroke-width="1.1134"/>
<path d="M12.0159 3.43283L12.0249 3.42285" stroke="black" stroke-width="1.1134" stroke-linecap="round" stroke-linejoin="round"/>
</svg>
